<?xml version="1.0" encoding="UTF-8"?>
<!DOCTYPE svg PUBLIC "-//W3C//DTD SVG 1.1//EN" "http://www.w3.org/Graphics/SVG/1.1/DTD/svg11.dtd">
<svg xmlns="http://www.w3.org/2000/svg" version="1.1" width="151px" height="163px" style="shape-rendering:geometricPrecision; text-rendering:geometricPrecision; image-rendering:optimizeQuality; fill-rule:evenodd; clip-rule:evenodd" xmlns:xlink="http://www.w3.org/1999/xlink">
<g><path style="opacity:1" fill="#ffffff" d="M 85.5,11.5 C 79.1667,10.1667 72.8333,10.1667 66.5,11.5C 69.356,9.99421 72.5226,9.32755 76,9.5C 79.4774,9.32755 82.644,9.99421 85.5,11.5 Z"/></g>
<g><path style="opacity:1" fill="#ffffff" d="M 85.5,11.5 C 89.1387,13.1387 91.8054,15.8053 93.5,19.5C 94.0604,21.8008 94.5604,24.1341 95,26.5C 95.3826,27.056 95.8826,27.3893 96.5,27.5C 96.5,29.1667 96.5,30.8333 96.5,32.5C 94.7587,34.3949 93.7587,36.7282 93.5,39.5C 92.075,40.922 91.075,42.5887 90.5,44.5C 87.3331,46.5522 83.9998,48.2188 80.5,49.5C 76.4659,49.4955 72.4659,49.1621 68.5,48.5C 62.393,45.4912 58.393,40.8246 56.5,34.5C 56.307,30.4338 56.6403,26.4338 57.5,22.5C 59.0855,17.5898 62.0855,13.9231 66.5,11.5C 72.8333,10.1667 79.1667,10.1667 85.5,11.5 Z"/></g>
<g><path style="opacity:1" fill="#ffffff" d="M 82.5,20.5 C 78.4677,19.2337 74.4677,19.2337 70.5,20.5C 71.8714,19.2132 73.7047,18.5465 76,18.5C 77.8333,18.6667 79.6667,18.8333 81.5,19C 82.056,19.3826 82.3893,19.8826 82.5,20.5 Z"/></g>
<g><path style="opacity:1" fill="#5f94ae" d="M 82.5,20.5 C 83.8333,21.1667 84.8333,22.1667 85.5,23.5C 86.8333,27.8333 86.8333,32.1667 85.5,36.5C 84.1667,37.1667 83.1667,38.1667 82.5,39.5C 78.9009,40.3439 75.2343,40.6773 71.5,40.5C 65.2834,35.8908 63.7834,29.8908 67,22.5C 68.1127,21.695 69.2794,21.0283 70.5,20.5C 74.4677,19.2337 78.4677,19.2337 82.5,20.5 Z"/></g>
<g><path style="opacity:1" fill="#ffffff" d="M 93.5,19.5 C 95.6545,21.6174 96.6545,24.284 96.5,27.5C 95.8826,27.3893 95.3826,27.056 95,26.5C 94.5604,24.1341 94.0604,21.8008 93.5,19.5 Z"/></g>
<g><path style="opacity:1" fill="#ffffff" d="M 57.5,22.5 C 56.6403,26.4338 56.307,30.4338 56.5,34.5C 55.3567,31.0242 55.1901,27.3575 56,23.5C 56.3826,22.944 56.8826,22.6107 57.5,22.5 Z"/></g>
<g><path style="opacity:1" fill="#ffffff" d="M 85.5,23.5 C 86.1174,23.6107 86.6174,23.944 87,24.5C 87.6667,28.1667 87.6667,31.8333 87,35.5C 86.6174,36.056 86.1174,36.3893 85.5,36.5C 86.8333,32.1667 86.8333,27.8333 85.5,23.5 Z"/></g>
<g><path style="opacity:1" fill="#ffffff" d="M 96.5,32.5 C 95.9853,34.8945 95.3186,37.2278 94.5,39.5C 94.1667,39.5 93.8333,39.5 93.5,39.5C 93.7587,36.7282 94.7587,34.3949 96.5,32.5 Z"/></g>
<g><path style="opacity:1" fill="#ffffff" d="M 82.5,39.5 C 81.1286,40.7868 79.2953,41.4535 77,41.5C 74.9674,41.4944 73.134,41.1611 71.5,40.5C 75.2343,40.6773 78.9009,40.3439 82.5,39.5 Z"/></g>
<g><path style="opacity:1" fill="#ffffff" d="M 93.5,39.5 C 93.8333,39.5 94.1667,39.5 94.5,39.5C 93.9202,41.7488 92.5869,43.4154 90.5,44.5C 91.075,42.5887 92.075,40.922 93.5,39.5 Z"/></g>
<g><path style="opacity:1" fill="#ffffff" d="M 90.5,44.5 C 88.2017,48.0545 84.8684,49.7212 80.5,49.5C 83.9998,48.2188 87.3331,46.5522 90.5,44.5 Z"/></g>
<g><path style="opacity:1" fill="#ffffff" d="M 68.5,48.5 C 72.4659,49.1621 76.4659,49.4955 80.5,49.5C 79.036,50.1599 77.3693,50.4932 75.5,50.5C 72.7954,50.6839 70.4621,50.0173 68.5,48.5 Z"/></g>
<g><path style="opacity:1" fill="#ffffff" d="M 85.5,57.5 C 79.9387,55.3722 74.272,55.0388 68.5,56.5C 73.6101,54.0292 78.9434,53.8626 84.5,56C 85.056,56.3826 85.3893,56.8826 85.5,57.5 Z"/></g>
<g><path style="opacity:1" fill="#ffffff" d="M 85.5,57.5 C 87.1667,59.1667 88.8333,60.8333 90.5,62.5C 91.1148,80.9807 91.7815,99.3141 92.5,117.5C 97.6686,118.381 103.002,119.048 108.5,119.5C 111.188,121.521 113.521,123.854 115.5,126.5C 118.763,134.377 117.43,141.377 111.5,147.5C 110.391,147.557 109.391,147.89 108.5,148.5C 87.1999,149.467 65.8666,149.8 44.5,149.5C 44.1667,149.5 43.8333,149.5 43.5,149.5C 43.0269,148.094 42.0269,147.427 40.5,147.5C 34.8005,142.475 32.9671,136.142 35,128.5C 36.7182,123.948 39.8848,120.948 44.5,119.5C 49.772,118.6 55.1053,118.267 60.5,118.5C 60.1932,100.453 60.5266,82.4532 61.5,64.5C 62.4308,60.5713 64.7641,57.9047 68.5,56.5C 74.272,55.0388 79.9387,55.3722 85.5,57.5 Z"/></g>
<g><path style="opacity:1" fill="#ffffff" d="M 79.5,64.5 C 76.7628,64.4013 74.0961,64.7347 71.5,65.5C 72.4919,63.9735 73.9919,63.3068 76,63.5C 77.3847,63.5143 78.5514,63.8476 79.5,64.5 Z"/></g>
<g><path style="opacity:1" fill="#5f94ae" d="M 79.5,64.5 C 80.072,65.9733 80.9054,67.3066 82,68.5C 82.4999,84.8299 82.6666,101.163 82.5,117.5C 78.1667,117.5 73.8333,117.5 69.5,117.5C 69.5,100.833 69.5,84.1667 69.5,67.5C 69.8333,66.5 70.5,65.8333 71.5,65.5C 74.0961,64.7347 76.7628,64.4013 79.5,64.5 Z"/></g>
<g><path style="opacity:1" fill="#ffffff" d="M 61.5,64.5 C 60.5266,82.4532 60.1932,100.453 60.5,118.5C 55.1053,118.267 49.772,118.6 44.5,119.5C 44.6107,118.883 44.944,118.383 45.5,118C 50.1548,117.501 54.8215,117.334 59.5,117.5C 58.847,99.4684 59.5137,81.8017 61.5,64.5 Z"/></g>
<g><path style="opacity:1" fill="#ffffff" d="M 69.5,67.5 C 69.5,84.1667 69.5,100.833 69.5,117.5C 73.8333,117.5 78.1667,117.5 82.5,117.5C 82.8333,117.5 83.1667,117.5 83.5,117.5C 78.6946,118.487 73.6946,118.821 68.5,118.5C 68.1701,101.325 68.5034,84.3251 69.5,67.5 Z"/></g>
<g><path style="opacity:1" fill="#ffffff" d="M 79.5,64.5 C 81.0744,64.9371 82.2411,65.9371 83,67.5C 83.4999,84.1633 83.6666,100.83 83.5,117.5C 83.1667,117.5 82.8333,117.5 82.5,117.5C 82.6666,101.163 82.4999,84.8299 82,68.5C 80.9054,67.3066 80.072,65.9733 79.5,64.5 Z"/></g>
<g><path style="opacity:1" fill="#ffffff" d="M 90.5,62.5 C 91.2679,63.2625 91.7679,64.2625 92,65.5C 92.4999,82.8301 92.6666,100.163 92.5,117.5C 91.7815,99.3141 91.1148,80.9807 90.5,62.5 Z"/></g>
<g><path style="opacity:1" fill="#ffffff" d="M 92.5,117.5 C 97.1785,117.334 101.845,117.501 106.5,118C 107.416,118.278 108.082,118.778 108.5,119.5C 103.002,119.048 97.6686,118.381 92.5,117.5 Z"/></g>
<g><path style="opacity:1" fill="#5f94ae" d="M 108.5,131.5 C 108.702,133.95 108.369,136.283 107.5,138.5C 106.71,139.401 105.71,140.068 104.5,140.5C 85.8304,140.667 67.1637,140.5 48.5,140C 47.3066,138.905 45.9733,138.072 44.5,137.5C 43.3709,135.372 43.2042,133.039 44,130.5C 44.5,129.333 45.3333,128.5 46.5,128C 66.5,127.333 86.5,127.333 106.5,128C 107.305,129.113 107.972,130.279 108.5,131.5 Z"/></g>
<g><path style="opacity:1" fill="#ffffff" d="M 115.5,126.5 C 116.931,126.881 117.764,127.881 118,129.5C 118.867,134.697 118.2,139.697 116,144.5C 114.871,146.141 113.371,147.141 111.5,147.5C 117.43,141.377 118.763,134.377 115.5,126.5 Z"/></g>
<g><path style="opacity:1" fill="#ffffff" d="M 108.5,131.5 C 109.152,132.449 109.486,133.615 109.5,135C 109.392,136.681 108.725,137.848 107.5,138.5C 108.369,136.283 108.702,133.95 108.5,131.5 Z"/></g>
<g><path style="opacity:1" fill="#ffffff" d="M 44.5,137.5 C 45.9733,138.072 47.3066,138.905 48.5,140C 67.1637,140.5 85.8304,140.667 104.5,140.5C 85.6711,141.662 66.6711,141.829 47.5,141C 45.9371,140.241 44.9371,139.074 44.5,137.5 Z"/></g>
<g><path style="opacity:1" fill="#ffffff" d="M 40.5,147.5 C 42.0269,147.427 43.0269,148.094 43.5,149.5C 41.9731,149.573 40.9731,148.906 40.5,147.5 Z"/></g>
<g><path style="opacity:1" fill="#ffffff" d="M 108.5,148.5 C 108.082,149.222 107.416,149.722 106.5,150C 85.6626,150.829 64.9959,150.663 44.5,149.5C 65.8666,149.8 87.1999,149.467 108.5,148.5 Z"/></g>
</svg>
